<svg xmlns="http://www.w3.org/2000/svg" version="1.1" xmlns:xlink="http://www.w3.org/1999/xlink" width="400" height="396"><svg xmlns="http://www.w3.org/2000/svg" xmlns:xlink="http://www.w3.org/1999/xlink" width="400" zoomAndPan="magnify" viewBox="0 0 300 296.999993" height="396" preserveAspectRatio="xMidYMid meet" version="1.2"><defs><clipPath id="SvgjsClipPath1029"><path d="M 215.421875 56 L 243 56 L 243 105 L 215.421875 105 Z M 215.421875 56 "></path></clipPath><clipPath id="SvgjsClipPath1028"><path d="M 70.113281 113 L 229 113 L 229 229.167969 L 70.113281 229.167969 Z M 70.113281 113 "></path></clipPath><clipPath id="SvgjsClipPath1027"><path d="M 70.113281 67.917969 L 229 67.917969 L 229 184 L 70.113281 184 Z M 70.113281 67.917969 "></path></clipPath></defs><g id="SvgjsG1026"><g clip-rule="nonzero" clip-path="url(#b0f78ce799)"><path style=" stroke:none;fill-rule:nonzero;fill:#ffd400;fill-opacity:1;" d="M 221.867188 102.960938 L 241.90625 82.921875 C 243.308594 81.519531 243.308594 79.25 241.90625 77.851562 L 221.867188 57.816406 C 219.609375 55.554688 215.746094 57.15625 215.746094 60.351562 L 215.746094 100.425781 C 215.746094 103.621094 219.609375 105.21875 221.867188 102.960938 Z M 221.867188 102.960938 "></path></g><g clip-rule="nonzero" clip-path="url(#c25a5a5b87)"><path style=" stroke:none;fill-rule:nonzero;fill:#ffd400;fill-opacity:1;" d="M 171.5 113.742188 L 128.199219 113.742188 C 121.585938 113.742188 116.230469 119.09375 116.230469 125.707031 C 116.230469 132.320312 121.585938 137.675781 128.199219 137.675781 L 171.5 137.675781 C 190.082031 137.675781 205.199219 152.792969 205.199219 171.371094 C 205.199219 189.953125 190.082031 205.070312 171.5 205.070312 L 81.589844 205.070312 C 75.449219 205.542969 70.566406 210.738281 70.566406 217.039062 C 70.566406 223.335938 75.449219 228.53125 81.589844 229.003906 L 171.34375 229.003906 C 203.152344 229.003906 228.976562 203.179688 228.976562 171.371094 C 229.132812 139.40625 203.308594 113.742188 171.5 113.742188 Z M 171.5 113.742188 "></path></g><g clip-rule="nonzero" clip-path="url(#b2f5318b44)"><path style=" stroke:none;fill-rule:nonzero;fill:#ffd400;fill-opacity:1;" d="M 128.199219 183.183594 L 171.5 183.183594 C 178.113281 183.183594 183.46875 177.828125 183.46875 171.214844 C 183.46875 164.601562 178.113281 159.25 171.5 159.25 L 128.199219 159.25 C 109.617188 159.25 94.5 144.132812 94.5 125.550781 C 94.5 106.96875 109.617188 91.851562 128.199219 91.851562 L 217.007812 91.851562 C 223.621094 91.851562 228.976562 86.5 228.976562 79.886719 C 228.976562 73.273438 223.621094 67.917969 217.007812 67.917969 L 128.199219 67.917969 C 96.390625 68.078125 70.566406 93.902344 70.566406 125.707031 C 70.566406 157.515625 96.390625 183.183594 128.199219 183.183594 Z M 128.199219 183.183594 "></path></g><path style=" stroke:none;fill-rule:nonzero;fill:#ffd400;fill-opacity:1;" d="M 77.832031 193.921875 L 57.796875 213.957031 C 56.394531 215.359375 56.394531 217.628906 57.796875 219.027344 L 77.832031 239.066406 C 80.09375 241.324219 83.957031 239.726562 83.957031 236.53125 L 83.957031 196.457031 C 83.957031 193.261719 80.09375 191.660156 77.832031 193.921875 Z M 77.832031 193.921875 "></path></g></svg><style>@media (prefers-color-scheme: light) { :root { filter: none; } }
@media (prefers-color-scheme: dark) { :root { filter: none; } }
</style></svg>