<?xml version="1.0" encoding="UTF-8" standalone="no"?>
<svg
   width="336.92188"
   zoomAndPan="magnify"
   viewBox="0 0 252.69141 248.96731"
   height="331.95642"
   preserveAspectRatio="xMidYMid"
   version="1.0"
   id="svg6"
   xmlns="http://www.w3.org/2000/svg"
   xmlns:svg="http://www.w3.org/2000/svg">
  <defs
     id="defs2">
    <clipPath
       id="ed0c1eb8a6">
      <path
         d="M 612,357 H 827.57812 V 514.09375 H 612 Z m 0,0"
         clip-rule="nonzero"
         id="path1" />
    </clipPath>
    <clipPath
       id="ee598c4830">
      <path
         d="M 612,295.80078 H 827.57812 V 453 H 612 Z m 0,0"
         clip-rule="nonzero"
         id="path2" />
    </clipPath>
  </defs>
  <path
     id="path3"
     d="M 220.73437 0.0014648437 C 218.1845 -0.063125439 215.70264 1.8989257 215.70264 4.8852539 L 215.70264 15.291504 L 96.988769 15.291504 C 53.855959 15.506344 18.836426 50.525885 18.836426 93.654785 C 18.836426 136.78759 53.855959 171.5918 96.988769 171.5918 L 155.70703 171.5918 C 164.67188 171.5918 171.9331 164.33008 171.9331 155.36133 C 171.9331 146.39649 164.67188 139.13525 155.70703 139.13525 L 96.988769 139.13525 C 71.789559 139.13525 51.292969 118.63917 51.292969 93.443847 C 51.292969 68.248537 71.789559 47.748047 96.988769 47.748047 L 215.70264 47.748047 L 215.70264 59.356933 C 215.70264 63.704583 220.95312 65.87695 224.02734 62.80664 L 251.26172 35.567871 C 253.16797 33.661621 253.16797 30.576666 251.26172 28.674316 L 224.02734 1.4399414 C 223.06665 0.47924765 221.89341 0.030824063 220.73437 0.0014648437 z M 96.988769 77.427246 C 88.020019 77.427246 80.7583 84.686035 80.7583 93.654785 C 80.7583 102.62353 88.020019 109.88525 96.988769 109.88525 L 155.70703 109.88525 C 180.90235 109.88525 201.39844 130.38134 201.39844 155.57666 C 201.39844 180.77197 180.90235 201.271 155.70703 201.271 L 36.988769 201.271 L 36.988769 189.60791 C 36.988769 185.26416 31.738767 183.08839 28.668457 186.1626 L 1.4296875 213.39697 C -0.47656251 215.30322 -0.47656251 218.39209 1.4296875 220.29053 L 28.668457 247.5293 C 31.738767 250.59961 36.988769 248.42773 36.988769 244.08398 L 36.988769 233.72461 L 155.4917 233.72461 C 198.62061 233.72461 233.64111 198.70947 233.64111 155.57666 C 233.85595 112.23291 198.83594 77.427246 155.70703 77.427246 L 96.988769 77.427246 z "
     style="fill:#ffd400;fill-opacity:1" />
</svg>
