<svg xmlns="http://www.w3.org/2000/svg" xmlns:xlink="http://www.w3.org/1999/xlink" width="400" zoomAndPan="magnify" viewBox="0 0 300 324.749988" height="433" preserveAspectRatio="xMidYMid meet" version="1.2"><defs><clipPath id="2710d76967"><path d="M 206.179688 47 L 230 47 L 230 89 L 206.179688 89 Z M 206.179688 47 "/></clipPath><clipPath id="d50c34f28a"><path d="M 80.308594 96 L 218 96 L 218 196.644531 L 80.308594 196.644531 Z M 80.308594 96 "/></clipPath><clipPath id="9e5b9b31ef"><path d="M 80.308594 57.25 L 218 57.25 L 218 157 L 80.308594 157 Z M 80.308594 57.25 "/></clipPath><clipPath id="2d638b756f"><path d="M 68 165 L 92.585938 165 L 92.585938 207 L 68 207 Z M 68 165 "/></clipPath></defs><g id="29034f3ba3"><g clip-rule="nonzero" clip-path="url(#2710d76967)"><path style=" stroke:none;fill-rule:nonzero;fill:#ffd400;fill-opacity:1;" d="M 211.75 87.621094 L 229.039062 70.328125 C 230.25 69.117188 230.25 67.160156 229.039062 65.953125 L 211.75 48.660156 C 209.796875 46.710938 206.464844 48.089844 206.464844 50.851562 L 206.464844 85.433594 C 206.464844 88.191406 209.796875 89.570312 211.75 87.621094 Z M 211.75 87.621094 "/></g><g clip-rule="nonzero" clip-path="url(#d50c34f28a)"><path style=" stroke:none;fill-rule:nonzero;fill:#ffd400;fill-opacity:1;" d="M 167.976562 96.871094 L 130.535156 96.871094 C 124.816406 96.871094 120.1875 101.5 120.1875 107.21875 C 120.1875 112.9375 124.816406 117.566406 130.535156 117.566406 L 167.976562 117.566406 C 184.042969 117.566406 197.113281 130.636719 197.113281 146.703125 C 197.113281 162.769531 184.042969 175.839844 167.976562 175.839844 L 90.230469 175.839844 C 84.921875 176.25 80.703125 180.742188 80.703125 186.1875 C 80.703125 191.632812 84.921875 196.128906 90.230469 196.535156 L 167.839844 196.535156 C 195.34375 196.535156 217.671875 174.207031 217.671875 146.703125 C 217.808594 119.066406 195.476562 96.871094 167.976562 96.871094 Z M 167.976562 96.871094 "/></g><g clip-rule="nonzero" clip-path="url(#9e5b9b31ef)"><path style=" stroke:none;fill-rule:nonzero;fill:#ffd400;fill-opacity:1;" d="M 130.535156 156.914062 L 167.976562 156.914062 C 173.695312 156.914062 178.324219 152.285156 178.324219 146.566406 C 178.324219 140.847656 173.695312 136.21875 167.976562 136.21875 L 130.535156 136.21875 C 114.46875 136.21875 101.398438 123.148438 101.398438 107.082031 C 101.398438 91.015625 114.46875 77.945312 130.535156 77.945312 L 207.324219 77.945312 C 213.042969 77.945312 217.671875 73.316406 217.671875 67.597656 C 217.671875 61.878906 213.042969 57.25 207.324219 57.25 L 130.535156 57.25 C 103.03125 57.386719 80.703125 79.714844 80.703125 107.21875 C 80.703125 134.722656 103.03125 156.914062 130.535156 156.914062 Z M 130.535156 156.914062 "/></g><g clip-rule="nonzero" clip-path="url(#2d638b756f)"><path style=" stroke:none;fill-rule:nonzero;fill:#ffd400;fill-opacity:1;" d="M 87.015625 166.398438 L 69.726562 183.691406 C 68.515625 184.898438 68.515625 186.859375 69.726562 188.066406 L 87.015625 205.359375 C 88.96875 207.308594 92.300781 205.925781 92.300781 203.167969 L 92.300781 168.585938 C 92.300781 165.828125 88.96875 164.449219 87.015625 166.398438 Z M 87.015625 166.398438 "/></g><g style="fill:#ffd400;fill-opacity:1;"><g transform="translate(46.102191, 275.665987)"><path style="stroke:none" d="M 20.984375 0.4375 C 17.253906 0.4375 13.679688 -0.0976562 10.265625 -1.171875 C 6.859375 -2.253906 4.195312 -3.613281 2.28125 -5.25 L 5.078125 -10.140625 C 6.992188 -8.628906 9.410156 -7.390625 12.328125 -6.421875 C 15.242188 -5.460938 18.273438 -4.984375 21.421875 -4.984375 C 25.617188 -4.984375 28.722656 -5.640625 30.734375 -6.953125 C 32.742188 -8.265625 33.75 -10.113281 33.75 -12.5 C 33.75 -14.195312 33.195312 -15.523438 32.09375 -16.484375 C 30.988281 -17.441406 29.585938 -18.171875 27.890625 -18.671875 C 26.203125 -19.171875 23.957031 -19.648438 21.15625 -20.109375 C 17.425781 -20.804688 14.425781 -21.519531 12.15625 -22.25 C 9.882812 -22.976562 7.945312 -24.21875 6.34375 -25.96875 C 4.738281 -27.71875 3.9375 -30.140625 3.9375 -33.234375 C 3.9375 -37.078125 5.539062 -40.222656 8.75 -42.671875 C 11.957031 -45.117188 16.414062 -46.34375 22.125 -46.34375 C 25.09375 -46.34375 28.0625 -45.945312 31.03125 -45.15625 C 34.007812 -44.375 36.460938 -43.34375 38.390625 -42.0625 L 35.6875 -37.078125 C 31.894531 -39.703125 27.375 -41.015625 22.125 -41.015625 C 18.15625 -41.015625 15.164062 -40.3125 13.15625 -38.90625 C 11.144531 -37.507812 10.140625 -35.675781 10.140625 -33.40625 C 10.140625 -31.65625 10.707031 -30.253906 11.84375 -29.203125 C 12.988281 -28.160156 14.40625 -27.390625 16.09375 -26.890625 C 17.78125 -26.398438 20.113281 -25.890625 23.09375 -25.359375 C 26.757812 -24.660156 29.703125 -23.960938 31.921875 -23.265625 C 34.140625 -22.566406 36.035156 -21.367188 37.609375 -19.671875 C 39.179688 -17.984375 39.96875 -15.65625 39.96875 -12.6875 C 39.96875 -8.65625 38.289062 -5.457031 34.9375 -3.09375 C 31.582031 -0.738281 26.929688 0.4375 20.984375 0.4375 Z M 20.984375 0.4375 "/></g></g><g style="fill:#ffd400;fill-opacity:1;"><g transform="translate(93.505743, 275.665987)"><path style="stroke:none" d="M 27.453125 0.4375 C 23.023438 0.4375 19.03125 -0.566406 15.46875 -2.578125 C 11.914062 -4.585938 9.117188 -7.367188 7.078125 -10.921875 C 5.035156 -14.484375 4.015625 -18.507812 4.015625 -23 C 4.015625 -27.488281 5.035156 -31.507812 7.078125 -35.0625 C 9.117188 -38.625 11.914062 -41.394531 15.46875 -43.375 C 19.03125 -45.351562 23.023438 -46.34375 27.453125 -46.34375 C 31.890625 -46.34375 35.882812 -45.351562 39.4375 -43.375 C 43 -41.394531 45.785156 -38.625 47.796875 -35.0625 C 49.804688 -31.507812 50.8125 -27.488281 50.8125 -23 C 50.8125 -18.507812 49.804688 -14.484375 47.796875 -10.921875 C 45.785156 -7.367188 43 -4.585938 39.4375 -2.578125 C 35.882812 -0.566406 31.890625 0.4375 27.453125 0.4375 Z M 27.453125 -5.078125 C 30.722656 -5.078125 33.65625 -5.816406 36.25 -7.296875 C 38.84375 -8.785156 40.867188 -10.898438 42.328125 -13.640625 C 43.785156 -16.378906 44.515625 -19.5 44.515625 -23 C 44.515625 -26.5 43.785156 -29.617188 42.328125 -32.359375 C 40.867188 -35.097656 38.84375 -37.207031 36.25 -38.6875 C 33.65625 -40.175781 30.722656 -40.921875 27.453125 -40.921875 C 24.191406 -40.921875 21.265625 -40.175781 18.671875 -38.6875 C 16.078125 -37.207031 14.035156 -35.097656 12.546875 -32.359375 C 11.054688 -29.617188 10.3125 -26.5 10.3125 -23 C 10.3125 -19.5 11.054688 -16.378906 12.546875 -13.640625 C 14.035156 -10.898438 16.078125 -8.785156 18.671875 -7.296875 C 21.265625 -5.816406 24.191406 -5.078125 27.453125 -5.078125 Z M 27.453125 -5.078125 "/></g></g><g style="fill:#ffd400;fill-opacity:1;"><g transform="translate(147.179938, 275.665987)"><path style="stroke:none" d="M 66.03125 -46.34375 C 71.800781 -46.34375 76.332031 -44.679688 79.625 -41.359375 C 82.914062 -38.035156 84.5625 -33.140625 84.5625 -26.671875 L 84.5625 0 L 78.359375 0 L 78.359375 -26.0625 C 78.359375 -30.84375 77.207031 -34.484375 74.90625 -36.984375 C 72.601562 -39.492188 69.351562 -40.75 65.15625 -40.75 C 60.375 -40.75 56.613281 -39.273438 53.875 -36.328125 C 51.132812 -33.390625 49.765625 -29.328125 49.765625 -24.140625 L 49.765625 0 L 43.546875 0 L 43.546875 -26.0625 C 43.546875 -30.84375 42.394531 -34.484375 40.09375 -36.984375 C 37.789062 -39.492188 34.515625 -40.75 30.265625 -40.75 C 25.535156 -40.75 21.785156 -39.273438 19.015625 -36.328125 C 16.242188 -33.390625 14.859375 -29.328125 14.859375 -24.140625 L 14.859375 0 L 8.65625 0 L 8.65625 -46 L 14.609375 -46 L 14.609375 -37.609375 C 16.234375 -40.398438 18.503906 -42.550781 21.421875 -44.0625 C 24.335938 -45.582031 27.691406 -46.34375 31.484375 -46.34375 C 35.328125 -46.34375 38.660156 -45.523438 41.484375 -43.890625 C 44.316406 -42.265625 46.4375 -39.847656 47.84375 -36.640625 C 49.53125 -39.671875 51.960938 -42.046875 55.140625 -43.765625 C 58.316406 -45.484375 61.945312 -46.34375 66.03125 -46.34375 Z M 66.03125 -46.34375 "/></g></g><g style="fill:#ffd400;fill-opacity:1;"><g transform="translate(235.104325, 275.665987)"><path style="stroke:none" d="M 8.65625 -46 L 14.859375 -46 L 14.859375 0 L 8.65625 0 Z M 11.8125 -56.0625 C 10.53125 -56.0625 9.453125 -56.5 8.578125 -57.375 C 7.703125 -58.25 7.265625 -59.296875 7.265625 -60.515625 C 7.265625 -61.679688 7.703125 -62.703125 8.578125 -63.578125 C 9.453125 -64.453125 10.53125 -64.890625 11.8125 -64.890625 C 13.09375 -64.890625 14.171875 -64.46875 15.046875 -63.625 C 15.921875 -62.78125 16.359375 -61.773438 16.359375 -60.609375 C 16.359375 -59.328125 15.921875 -58.25 15.046875 -57.375 C 14.171875 -56.5 13.09375 -56.0625 11.8125 -56.0625 Z M 11.8125 -56.0625 "/></g></g></g></svg>