<?xml version="1.0" encoding="UTF-8" standalone="no"?>
<svg
   zoomAndPan="magnify"
   viewBox="0 0 450.8535 572.82032"
   preserveAspectRatio="xMidYMid meet"
   version="1.0"
   id="svg131"
   xmlns="http://www.w3.org/2000/svg"
   xmlns:svg="http://www.w3.org/2000/svg">
  <defs
     id="defs43">
    <g
       id="g2" />
    <clipPath
       id="3b7d4123fd">
      <path
         d="M 37,141 H 421 V 420.68359 H 37 Z m 0,0"
         clip-rule="nonzero"
         id="path4" />
    </clipPath>
    <clipPath
       id="3850c0397e">
      <path
         d="M 37,31.09375 H 421 V 310 H 37 Z m 0,0"
         clip-rule="nonzero"
         id="path7" />
    </clipPath>
    <clipPath
       id="777f920d7f">
      <path
         d="M 1,428 H 77 V 614.80078 H 1 Z m 0,0"
         clip-rule="nonzero"
         id="path10" />
    </clipPath>
    <clipPath
       id="98963975a3">
      <rect
         x="0"
         width="76"
         y="0"
         height="187"
         id="rect13" />
    </clipPath>
    <clipPath
       id="55fc60692e">
      <path
         d="m 172,428 h 97 v 186.80078 h -97 z m 0,0"
         clip-rule="nonzero"
         id="path16" />
    </clipPath>
    <clipPath
       id="0105ee17b4">
      <rect
         x="0"
         width="97"
         y="0"
         height="187"
         id="rect19" />
    </clipPath>
    <clipPath
       id="437bfc900a">
      <path
         d="M 270,428 H 433 V 614.80078 H 270 Z m 0,0"
         clip-rule="nonzero"
         id="path22" />
    </clipPath>
    <clipPath
       id="c932c6e51c">
      <rect
         x="0"
         width="163"
         y="0"
         height="187"
         id="rect25" />
    </clipPath>
    <clipPath
       id="c0470d81de">
      <path
         d="m 423,428 h 42.28125 V 614.80078 H 423 Z m 0,0"
         clip-rule="nonzero"
         id="path28" />
    </clipPath>
    <clipPath
       id="55d69df60a">
      <rect
         x="0"
         width="43"
         y="0"
         height="187"
         id="rect31" />
    </clipPath>
    <clipPath
       id="ee529f86da">
      <path
         d="m 75,428 h 97 V 614.80078 H 75 Z m 0,0"
         clip-rule="nonzero"
         id="path34" />
    </clipPath>
    <clipPath
       id="f458abda7f">
      <rect
         x="0"
         width="97"
         y="0"
         height="187"
         id="rect37" />
    </clipPath>
    <clipPath
       id="53e5bc801a">
      <rect
         x="0"
         width="466"
         y="0"
         height="615"
         id="rect40" />
    </clipPath>
  </defs>
  <g
     transform="translate(-3.807617,-3.820557)"
     id="g129">
    <g
       clip-path="url(#53e5bc801a)"
       id="g127">
      <path
         fill="#ffd400"
         d="m 403.51172,115.87891 48.59765,-48.59766 c 3.40235,-3.398438 3.40235,-8.90625 0,-12.300781 L 403.51172,6.386719 C 398.03125,0.90625 388.66406,4.785156 388.66406,12.535156 v 97.191404 c 0,7.75391 9.36719,11.63282 14.84766,6.15235 z m 0,0"
         fill-opacity="1"
         fill-rule="nonzero"
         id="path45" />
      <g
         clip-path="url(#3b7d4123fd)"
         id="g49">
        <path
           fill="#ffd400"
           d="M 281.61719,141.95703 H 176.85156 c -16,0 -28.95312,12.95313 -28.95312,28.95313 0,16 12.95312,28.95312 28.95312,28.95312 h 104.76563 c 44.95703,0 81.52734,36.57422 81.52734,81.52734 0,44.95704 -36.57031,81.52735 -81.52734,81.52735 H 64.085938 c -14.859376,1.14453 -26.667969,13.71484 -26.667969,28.95703 0,15.23828 11.808593,27.80859 26.667969,28.95312 H 281.23828 c 76.95313,0 139.43359,-62.48046 139.43359,-139.4375 0.38282,-77.33593 -62.09765,-139.43359 -139.05468,-139.43359 z m 0,0"
           fill-opacity="1"
           fill-rule="nonzero"
           id="path47" />
      </g>
      <g
         clip-path="url(#3850c0397e)"
         id="g53">
        <path
           fill="#ffd400"
           d="m 176.85156,309.96484 h 104.76563 c 16,0 28.95312,-12.95312 28.95312,-28.95312 0,-16 -12.95312,-28.95313 -28.95312,-28.95313 H 176.85156 c -44.95312,0 -81.527341,-36.57422 -81.527341,-81.52734 0,-44.95703 36.574221,-81.527344 81.527341,-81.527344 h 214.86719 c 16,0 28.95312,-12.953125 28.95312,-28.953125 0,-16.003906 -12.95312,-28.957031 -28.95312,-28.957031 H 176.85156 C 99.894531,31.476562 37.417969,93.957031 37.417969,170.91016 c 0,76.95703 62.476562,139.05468 139.433591,139.05468 z m 0,0"
           fill-opacity="1"
           fill-rule="nonzero"
           id="path51" />
      </g>
      <path
         fill="#ffd400"
         d="M 54.953125,335.96875 6.359375,384.5625 c -3.402344,3.40234 -3.402344,8.91016 0,12.30078 l 48.59375,48.59766 c 5.480469,5.48047 14.851563,1.60156 14.851563,-6.15235 v -97.1914 c 0,-7.75 -9.371094,-11.62891 -14.851563,-6.14844 z m 0,0"
         fill-opacity="1"
         fill-rule="nonzero"
         id="path55" />
      <g
         clip-path="url(#777f920d7f)"
         id="g69">
        <g
           transform="translate(1,428)"
           id="g67">
          <g
             clip-path="url(#98963975a3)"
             id="g65">
            <g
               fill="#ffd400"
               fill-opacity="1"
               id="g63">
              <g
                 transform="translate(1.021796,147.87527)"
                 id="g61">
                <g
                   id="g59">
                  <path
                     d="m 36.609375,0.765625 c -6.511719,0 -12.742187,-0.9375 -18.6875,-2.8125 C 11.972656,-3.929688 7.320312,-6.300781 3.96875,-9.15625 l 4.875,-8.546875 c 3.351562,2.648437 7.570312,4.8125 12.65625,6.5 5.09375,1.679687 10.382812,2.515625 15.875,2.515625 7.320312,0 12.738281,-1.144531 16.25,-3.4375 3.507812,-2.289062 5.265625,-5.519531 5.265625,-9.6875 0,-2.945312 -0.96875,-5.257812 -2.90625,-6.9375 -1.929687,-1.675781 -4.371094,-2.945312 -7.328125,-3.8125 -2.949219,-0.863281 -6.859375,-1.703125 -11.734375,-2.515625 -6.511719,-1.226563 -11.75,-2.476563 -15.71875,-3.75 -3.96875,-1.269531 -7.355469,-3.429687 -10.15625,-6.484375 -2.792969,-3.050781 -4.1875,-7.269531 -4.1875,-12.65625 0,-6.707031 2.796875,-12.195312 8.390625,-16.46875 5.59375,-4.269531 13.375,-6.40625 23.34375,-6.40625 5.1875,0 10.375,0.6875 15.5625,2.0625 5.1875,1.367188 9.457031,3.167969 12.8125,5.40625 l -4.734375,8.6875 C 55.628906,-69.257812 47.75,-71.546875 38.59375,-71.546875 c -6.917969,0 -12.132812,1.226563 -15.640625,3.671875 -3.5,2.4375 -5.25,5.640625 -5.25,9.609375 0,3.042969 0.988281,5.480469 2.96875,7.3125 1.976563,1.835937 4.441406,3.183594 7.390625,4.046875 2.957031,0.867188 7.023438,1.757812 12.203125,2.671875 6.414063,1.21875 11.550781,2.4375 15.40625,3.65625 3.863281,1.21875 7.171875,3.304687 9.921875,6.25 2.75,2.949219 4.125,7.015625 4.125,12.203125 0,7.023438 -2.929688,12.59375 -8.78125,16.71875 -5.84375,4.117188 -13.953125,6.171875 -24.328125,6.171875 z m 0,0"
                     id="path57" />
                </g>
              </g>
            </g>
          </g>
        </g>
      </g>
      <g
         clip-path="url(#55fc60692e)"
         id="g83">
        <g
           transform="translate(172,428)"
           id="g81">
          <g
             clip-path="url(#0105ee17b4)"
             id="g79">
            <g
               fill="#ffd400"
               fill-opacity="1"
               id="g77">
              <g
                 transform="translate(0.903838,147.87527)"
                 id="g75">
                <g
                   id="g73">
                  <path
                     d="M 47.90625,0.765625 C 40.175781,0.765625 33.207031,-0.988281 27,-4.5 20.800781,-8.007812 15.921875,-12.863281 12.359375,-19.0625 c -3.5625,-6.207031 -5.34375,-13.226562 -5.34375,-21.0625 0,-7.820312 1.78125,-14.835938 5.34375,-21.046875 3.5625,-6.207031 8.441406,-11.035156 14.640625,-14.484375 6.207031,-3.457031 13.175781,-5.1875 20.90625,-5.1875 7.726562,0 14.691406,1.730469 20.890625,5.1875 6.207031,3.449219 11.0625,8.277344 14.5625,14.484375 3.507813,6.210937 5.265625,13.226563 5.265625,21.046875 0,7.835938 -1.757812,14.855469 -5.265625,21.0625 -3.5,6.199219 -8.355469,11.054688 -14.5625,14.5625 -6.199219,3.511719 -13.164063,5.265625 -20.890625,5.265625 z m 0,-9.609375 c 5.6875,0 10.789062,-1.296875 15.3125,-3.890625 4.53125,-2.59375 8.066406,-6.28125 10.609375,-11.0625 2.539063,-4.78125 3.8125,-10.222656 3.8125,-16.328125 0,-6.09375 -1.273437,-11.53125 -3.8125,-16.3125 C 71.285156,-61.21875 67.75,-64.90625 63.21875,-67.5 c -4.523438,-2.59375 -9.625,-3.890625 -15.3125,-3.890625 -5.699219,0 -10.8125,1.296875 -15.34375,3.890625 -4.523438,2.59375 -8.078125,6.28125 -10.671875,11.0625 C 19.296875,-51.65625 18,-46.21875 18,-40.125 c 0,6.105469 1.296875,11.546875 3.890625,16.328125 2.59375,4.78125 6.148437,8.46875 10.671875,11.0625 4.53125,2.59375 9.644531,3.890625 15.34375,3.890625 z m 0,0"
                     id="path71" />
                </g>
              </g>
            </g>
          </g>
        </g>
      </g>
      <g
         clip-path="url(#437bfc900a)"
         id="g97">
        <g
           transform="translate(270,428)"
           id="g95">
          <g
             clip-path="url(#c932c6e51c)"
             id="g93">
            <g
               fill="#ffd400"
               fill-opacity="1"
               id="g91">
              <g
                 transform="translate(0.306685,147.87527)"
                 id="g89">
                <g
                   id="g87">
                  <path
                     d="m 115.17188,-80.84375 c 10.07031,0 17.97656,2.902344 23.71874,8.703125 5.75,5.792969 8.625,14.328125 8.625,25.609375 V 0 H 136.6875 v -45.453125 c 0,-8.34375 -2.01172,-14.703125 -6.03125,-19.078125 -4.02344,-4.375 -9.69531,-6.5625 -17.01562,-6.5625 -8.33594,0 -14.89063,2.574219 -19.67188,7.71875 -4.78125,5.136719 -7.171875,12.226562 -7.171875,21.265625 V 0 H 75.96875 v -45.453125 c 0,-8.34375 -2.011719,-14.703125 -6.03125,-19.078125 -4.011719,-4.375 -9.730469,-6.5625 -17.15625,-6.5625 -8.242188,0 -14.777344,2.574219 -19.609375,7.71875 -4.824219,5.136719 -7.234375,12.226562 -7.234375,21.265625 V 0 H 15.109375 V -80.234375 H 25.46875 v 14.640625 c 2.851562,-4.882812 6.820312,-8.644531 11.90625,-11.28125 5.082031,-2.644531 10.929688,-3.96875 17.546875,-3.96875 6.707031,0 12.523437,1.421875 17.453125,4.265625 4.9375,2.84375 8.625,7.0625 11.0625,12.65625 2.945312,-5.28125 7.191406,-9.421875 12.734375,-12.421875 5.550785,-3 11.882815,-4.5 19.000005,-4.5 z m 0,0"
                     id="path85" />
                </g>
              </g>
            </g>
          </g>
        </g>
      </g>
      <g
         clip-path="url(#c0470d81de)"
         id="g111">
        <g
           transform="translate(423,428)"
           id="g109">
          <g
             clip-path="url(#55d69df60a)"
             id="g107">
            <g
               fill="#ffd400"
               fill-opacity="1"
               id="g105">
              <g
                 transform="translate(0.679451,147.87527)"
                 id="g103">
                <g
                   id="g101">
                  <path
                     d="M 15.109375,-80.234375 H 25.9375 V 0 H 15.109375 Z M 20.59375,-97.78125 c -2.242188,0 -4.125,-0.757812 -5.65625,-2.28125 -1.523438,-1.53125 -2.28125,-3.36328 -2.28125,-5.5 0,-2.03125 0.757812,-3.80469 2.28125,-5.32813 1.53125,-1.53125 3.414062,-2.29687 5.65625,-2.29687 2.238281,0 4.117188,0.74219 5.640625,2.21875 1.53125,1.46875 2.296875,3.21875 2.296875,5.25 0,2.24219 -0.765625,4.125 -2.296875,5.65625 -1.523437,1.523438 -3.402344,2.28125 -5.640625,2.28125 z m 0,0"
                     id="path99" />
                </g>
              </g>
            </g>
          </g>
        </g>
      </g>
      <g
         clip-path="url(#ee529f86da)"
         id="g125">
        <g
           transform="translate(75,428)"
           id="g123">
          <g
             clip-path="url(#f458abda7f)"
             id="g121">
            <g
               fill="#ffd400"
               fill-opacity="1"
               id="g119">
              <g
                 transform="translate(0.500992,147.87527)"
                 id="g117">
                <g
                   id="g115">
                  <path
                     d="M 47.90625,0.765625 C 40.175781,0.765625 33.207031,-0.988281 27,-4.5 20.800781,-8.007812 15.921875,-12.863281 12.359375,-19.0625 c -3.5625,-6.207031 -5.34375,-13.226562 -5.34375,-21.0625 0,-7.820312 1.78125,-14.835938 5.34375,-21.046875 3.5625,-6.207031 8.441406,-11.035156 14.640625,-14.484375 6.207031,-3.457031 13.175781,-5.1875 20.90625,-5.1875 7.726562,0 14.691406,1.730469 20.890625,5.1875 6.207031,3.449219 11.0625,8.277344 14.5625,14.484375 3.507813,6.210937 5.265625,13.226563 5.265625,21.046875 0,7.835938 -1.757812,14.855469 -5.265625,21.0625 -3.5,6.199219 -8.355469,11.054688 -14.5625,14.5625 -6.199219,3.511719 -13.164063,5.265625 -20.890625,5.265625 z m 0,-9.609375 c 5.6875,0 10.789062,-1.296875 15.3125,-3.890625 4.53125,-2.59375 8.066406,-6.28125 10.609375,-11.0625 2.539063,-4.78125 3.8125,-10.222656 3.8125,-16.328125 0,-6.09375 -1.273437,-11.53125 -3.8125,-16.3125 C 71.285156,-61.21875 67.75,-64.90625 63.21875,-67.5 c -4.523438,-2.59375 -9.625,-3.890625 -15.3125,-3.890625 -5.699219,0 -10.8125,1.296875 -15.34375,3.890625 -4.523438,2.59375 -8.078125,6.28125 -10.671875,11.0625 C 19.296875,-51.65625 18,-46.21875 18,-40.125 c 0,6.105469 1.296875,11.546875 3.890625,16.328125 2.59375,4.78125 6.148437,8.46875 10.671875,11.0625 4.53125,2.59375 9.644531,3.890625 15.34375,3.890625 z m 0,0"
                     id="path113" />
                </g>
              </g>
            </g>
          </g>
        </g>
      </g>
    </g>
  </g>
</svg>
