<svg xmlns="http://www.w3.org/2000/svg" xmlns:xlink="http://www.w3.org/1999/xlink" width="400" zoomAndPan="magnify" viewBox="0 0 300 164.249993" height="219" preserveAspectRatio="xMidYMid meet" version="1.2"><defs><clipPath id="a1e2c55f56"><path d="M 119.273438 32 L 134.953125 32 L 134.953125 58 L 119.273438 58 Z M 119.273438 32 "/></clipPath><clipPath id="7a9fd1da57"><path d="M 39.5625 62 L 126.914062 62 L 126.914062 126 L 39.5625 126 Z M 39.5625 62 "/></clipPath><clipPath id="a228f2c6b9"><path d="M 39.5625 37.902344 L 126.914062 37.902344 L 126.914062 101 L 39.5625 101 Z M 39.5625 37.902344 "/></clipPath><clipPath id="14d180833a"><path d="M 32 106 L 47.332031 106 L 47.332031 132.71875 L 32 132.71875 Z M 32 106 "/></clipPath></defs><g id="45c3547b77"><g clip-rule="nonzero" clip-path="url(#a1e2c55f56)"><path style=" stroke:none;fill-rule:nonzero;fill:#ffd400;fill-opacity:1;" d="M 122.777344 57.140625 L 133.65625 46.261719 C 134.417969 45.5 134.417969 44.265625 133.65625 43.507812 L 122.777344 32.628906 C 121.550781 31.398438 119.453125 32.269531 119.453125 34.003906 L 119.453125 55.761719 C 119.453125 57.5 121.550781 58.367188 122.777344 57.140625 Z M 122.777344 57.140625 "/></g><g clip-rule="nonzero" clip-path="url(#7a9fd1da57)"><path style=" stroke:none;fill-rule:nonzero;fill:#ffd400;fill-opacity:1;" d="M 95.007812 62.964844 L 71.328125 62.964844 C 67.710938 62.964844 64.78125 65.890625 64.78125 69.507812 C 64.78125 73.125 67.710938 76.054688 71.328125 76.054688 L 95.007812 76.054688 C 105.171875 76.054688 113.4375 84.320312 113.4375 94.484375 C 113.4375 104.644531 105.171875 112.910156 95.007812 112.910156 L 45.835938 112.910156 C 42.476562 113.171875 39.808594 116.011719 39.808594 119.457031 C 39.808594 122.902344 42.476562 125.742188 45.835938 126 L 94.921875 126 C 112.320312 126 126.441406 111.878906 126.441406 94.484375 C 126.527344 77 112.40625 62.964844 95.007812 62.964844 Z M 95.007812 62.964844 "/></g><g clip-rule="nonzero" clip-path="url(#a228f2c6b9)"><path style=" stroke:none;fill-rule:nonzero;fill:#ffd400;fill-opacity:1;" d="M 71.328125 100.941406 L 95.007812 100.941406 C 98.625 100.941406 101.554688 98.011719 101.554688 94.398438 C 101.554688 90.78125 98.625 87.851562 95.007812 87.851562 L 71.328125 87.851562 C 61.164062 87.851562 52.898438 79.585938 52.898438 69.421875 C 52.898438 59.261719 61.164062 50.992188 71.328125 50.992188 L 119.898438 50.992188 C 123.515625 50.992188 126.441406 48.066406 126.441406 44.449219 C 126.441406 40.832031 123.515625 37.902344 119.898438 37.902344 L 71.328125 37.902344 C 53.929688 37.988281 39.808594 52.113281 39.808594 69.507812 C 39.808594 86.90625 53.929688 100.941406 71.328125 100.941406 Z M 71.328125 100.941406 "/></g><g clip-rule="nonzero" clip-path="url(#14d180833a)"><path style=" stroke:none;fill-rule:nonzero;fill:#ffd400;fill-opacity:1;" d="M 43.828125 107.023438 L 32.949219 117.902344 C 32.1875 118.664062 32.1875 119.894531 32.949219 120.65625 L 43.828125 131.535156 C 45.054688 132.761719 47.152344 131.894531 47.152344 130.15625 L 47.152344 108.398438 C 47.152344 106.664062 45.054688 105.796875 43.828125 107.023438 Z M 43.828125 107.023438 "/></g><g style="fill:#ffd400;fill-opacity:1;"><g transform="translate(133.15393, 111.588128)"><path style="stroke:none" d="M 23.421875 0.375 C 19.640625 0.375 16.234375 -0.484375 13.203125 -2.203125 C 10.171875 -3.921875 7.785156 -6.296875 6.046875 -9.328125 C 4.304688 -12.359375 3.4375 -15.789062 3.4375 -19.625 C 3.4375 -23.445312 4.304688 -26.875 6.046875 -29.90625 C 7.785156 -32.945312 10.171875 -35.3125 13.203125 -37 C 16.234375 -38.695312 19.640625 -39.546875 23.421875 -39.546875 C 27.203125 -39.546875 30.609375 -38.695312 33.640625 -37 C 36.679688 -35.3125 39.054688 -32.945312 40.765625 -29.90625 C 42.484375 -26.875 43.34375 -23.445312 43.34375 -19.625 C 43.34375 -15.789062 42.484375 -12.359375 40.765625 -9.328125 C 39.054688 -6.296875 36.679688 -3.921875 33.640625 -2.203125 C 30.609375 -0.484375 27.203125 0.375 23.421875 0.375 Z M 23.421875 -4.328125 C 26.210938 -4.328125 28.710938 -4.957031 30.921875 -6.21875 C 33.140625 -7.488281 34.867188 -9.289062 36.109375 -11.625 C 37.347656 -13.96875 37.96875 -16.632812 37.96875 -19.625 C 37.96875 -22.601562 37.347656 -25.257812 36.109375 -27.59375 C 34.867188 -29.9375 33.140625 -31.742188 30.921875 -33.015625 C 28.710938 -34.285156 26.210938 -34.921875 23.421875 -34.921875 C 20.640625 -34.921875 18.140625 -34.285156 15.921875 -33.015625 C 13.710938 -31.742188 11.972656 -29.9375 10.703125 -27.59375 C 9.429688 -25.257812 8.796875 -22.601562 8.796875 -19.625 C 8.796875 -16.632812 9.429688 -13.96875 10.703125 -11.625 C 11.972656 -9.289062 13.710938 -7.488281 15.921875 -6.21875 C 18.140625 -4.957031 20.640625 -4.328125 23.421875 -4.328125 Z M 23.421875 -4.328125 "/></g></g><g style="fill:#ffd400;fill-opacity:1;"><g transform="translate(178.941821, 111.588128)"><path style="stroke:none" d="M 56.328125 -39.546875 C 61.253906 -39.546875 65.117188 -38.125 67.921875 -35.28125 C 70.734375 -32.445312 72.140625 -28.269531 72.140625 -22.75 L 72.140625 0 L 66.84375 0 L 66.84375 -22.234375 C 66.84375 -26.304688 65.859375 -29.410156 63.890625 -31.546875 C 61.929688 -33.691406 59.160156 -34.765625 55.578125 -34.765625 C 51.503906 -34.765625 48.296875 -33.507812 45.953125 -31 C 43.617188 -28.488281 42.453125 -25.019531 42.453125 -20.59375 L 42.453125 0 L 37.15625 0 L 37.15625 -22.234375 C 37.15625 -26.304688 36.171875 -29.410156 34.203125 -31.546875 C 32.242188 -33.691406 29.445312 -34.765625 25.8125 -34.765625 C 21.78125 -34.765625 18.582031 -33.507812 16.21875 -31 C 13.863281 -28.488281 12.6875 -25.019531 12.6875 -20.59375 L 12.6875 0 L 7.390625 0 L 7.390625 -39.25 L 12.453125 -39.25 L 12.453125 -32.078125 C 13.847656 -34.460938 15.789062 -36.300781 18.28125 -37.59375 C 20.769531 -38.894531 23.628906 -39.546875 26.859375 -39.546875 C 30.140625 -39.546875 32.984375 -38.847656 35.390625 -37.453125 C 37.804688 -36.054688 39.613281 -33.992188 40.8125 -31.265625 C 42.25 -33.847656 44.320312 -35.875 47.03125 -37.34375 C 49.75 -38.8125 52.847656 -39.546875 56.328125 -39.546875 Z M 56.328125 -39.546875 "/></g></g><g style="fill:#ffd400;fill-opacity:1;"><g transform="translate(253.947603, 111.588128)"><path style="stroke:none" d="M 7.390625 -39.25 L 12.6875 -39.25 L 12.6875 0 L 7.390625 0 Z M 10.078125 -47.828125 C 8.972656 -47.828125 8.046875 -48.195312 7.296875 -48.9375 C 6.554688 -49.6875 6.1875 -50.582031 6.1875 -51.625 C 6.1875 -52.625 6.554688 -53.492188 7.296875 -54.234375 C 8.046875 -54.984375 8.972656 -55.359375 10.078125 -55.359375 C 11.171875 -55.359375 12.085938 -55 12.828125 -54.28125 C 13.578125 -53.5625 13.953125 -52.703125 13.953125 -51.703125 C 13.953125 -50.609375 13.578125 -49.6875 12.828125 -48.9375 C 12.085938 -48.195312 11.171875 -47.828125 10.078125 -47.828125 Z M 10.078125 -47.828125 "/></g></g></g></svg>