<?xml version="1.0" encoding="UTF-8" standalone="no"?>
<svg
   zoomAndPan="magnify"
   viewBox="0 0 101.77922 35.967522"
   preserveAspectRatio="xMidYMid meet"
   version="1.0"
   id="svg106"
   xmlns="http://www.w3.org/2000/svg"
   xmlns:svg="http://www.w3.org/2000/svg">
  <defs
     id="defs34">
    <g
       id="g2" />
    <clipPath
       id="bafa078581">
      <path
         d="m 32.164062,1 h 5.53125 v 9.515625 h -5.53125 z m 0,0"
         clip-rule="nonzero"
         id="path4" />
    </clipPath>
    <clipPath
       id="8458126acd">
      <path
         d="M 3.699219,12 H 34.867188 V 34.894531 H 3.699219 Z m 0,0"
         clip-rule="nonzero"
         id="path7" />
    </clipPath>
    <clipPath
       id="4fdbeccf97">
      <path
         d="M 3.699219,3.222656 H 34.867188 V 26 H 3.699219 Z m 0,0"
         clip-rule="nonzero"
         id="path10" />
    </clipPath>
    <clipPath
       id="7036a093be">
      <path
         d="M 1,27.480469 H 6.472656 V 37 H 1 Z m 0,0"
         clip-rule="nonzero"
         id="path13" />
    </clipPath>
    <clipPath
       id="19eb9a30c5">
      <rect
         x="0"
         width="18"
         y="0"
         height="34"
         id="rect16" />
    </clipPath>
    <clipPath
       id="308e418a20">
      <rect
         x="0"
         width="30"
         y="0"
         height="34"
         id="rect19" />
    </clipPath>
    <clipPath
       id="ff15118978">
      <path
         d="m 97,3 h 8.23047 V 37 H 97 Z m 0,0"
         clip-rule="nonzero"
         id="path22" />
    </clipPath>
    <clipPath
       id="3a0bbeb3c3">
      <rect
         x="0"
         width="9"
         y="0"
         height="34"
         id="rect25" />
    </clipPath>
    <clipPath
       id="d412a7bc43">
      <rect
         x="0"
         width="18"
         y="0"
         height="34"
         id="rect28" />
    </clipPath>
    <clipPath
       id="eaf8e9a5a5">
      <rect
         x="0"
         width="106"
         y="0"
         height="38"
         id="rect31" />
    </clipPath>
  </defs>
  <g
     transform="translate(-1.06543,-1.0142867)"
     id="g104">
    <g
       clip-path="url(#eaf8e9a5a5)"
       id="g102">
      <g
         clip-path="url(#bafa078581)"
         id="g38">
        <path
           fill="#ffd400"
           d="m 33.429688,10.085938 3.9375,-3.933594 c 0.273437,-0.273438 0.273437,-0.722656 0,-0.996094 l -3.9375,-3.933594 C 32.988281,0.777344 32.226562,1.09375 32.226562,1.71875 v 7.871094 c 0,0.628906 0.761719,0.941406 1.203126,0.496094 z m 0,0"
           fill-opacity="1"
           fill-rule="nonzero"
           id="path36" />
      </g>
      <g
         clip-path="url(#8458126acd)"
         id="g42">
        <path
           fill="#ffd400"
           d="m 23.558594,12.203125 h -8.484375 c -1.292969,0 -2.34375,1.046875 -2.34375,2.34375 0,1.292969 1.050781,2.34375 2.34375,2.34375 h 8.484375 c 3.640625,0 6.601562,2.960937 6.601562,6.601563 0,3.640624 -2.960937,6.601562 -6.601562,6.601562 H 5.945312 c -1.203124,0.09375 -2.160156,1.109375 -2.160156,2.34375 0,1.234375 0.957032,2.253906 2.160156,2.34375 h 17.582032 c 6.234375,0 11.292968,-5.058594 11.292968,-11.289062 0.03125,-6.261719 -5.03125,-11.289063 -11.261718,-11.289063 z m 0,0"
           fill-opacity="1"
           fill-rule="nonzero"
           id="path40" />
      </g>
      <g
         clip-path="url(#4fdbeccf97)"
         id="g46">
        <path
           fill="#ffd400"
           d="m 15.074219,25.804688 h 8.484375 c 1.296875,0 2.34375,-1.046876 2.34375,-2.34375 0,-1.296876 -1.046875,-2.34375 -2.34375,-2.34375 h -8.484375 c -3.636719,0 -6.601563,-2.960938 -6.601563,-6.601563 0,-3.640625 2.964844,-6.601563 6.601563,-6.601563 h 17.402343 c 1.292969,0 2.34375,-1.050781 2.34375,-2.34375 0,-1.296874 -1.050781,-2.347656 -2.34375,-2.347656 H 15.074219 C 8.84375,3.253906 3.785156,8.3125 3.785156,14.546875 c 0,6.230469 5.058594,11.257813 11.289063,11.257813 z m 0,0"
           fill-opacity="1"
           fill-rule="nonzero"
           id="path44" />
      </g>
      <g
         clip-path="url(#7036a093be)"
         id="g50">
        <path
           fill="#ffd400"
           d="M 5.207031,27.910156 1.273438,31.84375 c -0.277344,0.273438 -0.277344,0.722656 0,0.996094 l 3.933593,3.933594 c 0.445313,0.445312 1.203125,0.128906 1.203125,-0.496094 V 28.40625 c 0,-0.628906 -0.757812,-0.941406 -1.203125,-0.496094 z m 0,0"
           fill-opacity="1"
           fill-rule="nonzero"
           id="path48" />
      </g>
      <g
         transform="translate(54,3)"
         id="g62">
        <g
           clip-path="url(#19eb9a30c5)"
           id="g60">
          <g
             fill="#ffd400"
             fill-opacity="1"
             id="g58">
            <g
               transform="translate(0.725231,26.536597)"
               id="g56">
              <g
                 id="g54">
                <path
                   d="m 8.359375,0.140625 c -1.34375,0 -2.558594,-0.304687 -3.640625,-0.921875 C 3.632812,-1.394531 2.78125,-2.242188 2.15625,-3.328125 1.53125,-4.410156 1.21875,-5.632812 1.21875,-7 c 0,-1.375 0.3125,-2.601562 0.9375,-3.6875 0.625,-1.082031 1.476562,-1.925781 2.5625,-2.53125 1.082031,-0.601562 2.296875,-0.90625 3.640625,-0.90625 1.351563,0 2.570313,0.304688 3.65625,0.90625 1.082031,0.605469 1.929687,1.449219 2.546875,2.53125 0.613281,1.085938 0.921875,2.3125 0.921875,3.6875 0,1.367188 -0.308594,2.589844 -0.921875,3.671875 -0.617188,1.085937 -1.464844,1.933594 -2.546875,2.546875 -1.085937,0.617188 -2.304687,0.921875 -3.65625,0.921875 z m 0,-1.6875 c 1,0 1.894531,-0.222656 2.6875,-0.671875 0.789063,-0.457031 1.40625,-1.101562 1.84375,-1.9375 C 13.335938,-4.988281 13.5625,-5.9375 13.5625,-7 c 0,-1.070312 -0.226562,-2.023438 -0.671875,-2.859375 -0.4375,-0.832031 -1.054687,-1.472656 -1.84375,-1.921875 -0.792969,-0.457031 -1.6875,-0.6875 -2.6875,-0.6875 -0.992187,0 -1.882813,0.230469 -2.671875,0.6875 -0.792969,0.449219 -1.417969,1.089844 -1.875,1.921875 C 3.363281,-9.023438 3.140625,-8.070312 3.140625,-7 c 0,1.0625 0.222656,2.011719 0.671875,2.84375 0.457031,0.835938 1.082031,1.480469 1.875,1.9375 0.789062,0.449219 1.679688,0.671875 2.671875,0.671875 z m 0,0"
                   id="path52" />
              </g>
            </g>
          </g>
        </g>
      </g>
      <g
         transform="translate(70,3)"
         id="g74">
        <g
           clip-path="url(#308e418a20)"
           id="g72">
          <g
             fill="#ffd400"
             fill-opacity="1"
             id="g70">
            <g
               transform="translate(1.075943,26.536597)"
               id="g68">
              <g
                 id="g66">
                <path
                   d="m 20.109375,-14.125 c 1.757813,0 3.140625,0.511719 4.140625,1.53125 1.007812,1.011719 1.515625,2.5 1.515625,4.46875 V 0 H 23.875 v -7.9375 c 0,-1.457031 -0.355469,-2.566406 -1.0625,-3.328125 -0.699219,-0.769531 -1.6875,-1.15625 -2.96875,-1.15625 -1.460938,0 -2.605469,0.453125 -3.4375,1.359375 -0.835938,0.898438 -1.25,2.132812 -1.25,3.703125 V 0 h -1.890625 v -7.9375 c 0,-1.457031 -0.355469,-2.566406 -1.0625,-3.328125 -0.699219,-0.769531 -1.695313,-1.15625 -2.984375,-1.15625 -1.4375,0 -2.578125,0.453125 -3.421875,1.359375 -0.84375,0.898438 -1.265625,2.132812 -1.265625,3.703125 V 0 H 2.640625 v -14.015625 h 1.8125 v 2.5625 c 0.488281,-0.851563 1.175781,-1.507813 2.0625,-1.96875 C 7.410156,-13.890625 8.4375,-14.125 9.59375,-14.125 c 1.164062,0 2.179688,0.25 3.046875,0.75 0.863281,0.5 1.507813,1.242188 1.9375,2.21875 0.507813,-0.925781 1.25,-1.648438 2.21875,-2.171875 0.96875,-0.53125 2.070313,-0.796875 3.3125,-0.796875 z m 0,0"
                   id="path64" />
              </g>
            </g>
          </g>
        </g>
      </g>
      <g
         clip-path="url(#ff15118978)"
         id="g88">
        <g
           transform="translate(97,3)"
           id="g86">
          <g
             clip-path="url(#3a0bbeb3c3)"
             id="g84">
            <g
               fill="#ffd400"
               fill-opacity="1"
               id="g82">
              <g
                 transform="translate(0.86028,26.536597)"
                 id="g80">
                <g
                   id="g78">
                  <path
                     d="M 2.640625,-14.015625 H 4.53125 V 0 H 2.640625 Z m 0.953125,-3.0625 c -0.386719,0 -0.714844,-0.128906 -0.984375,-0.390625 -0.261719,-0.269531 -0.390625,-0.59375 -0.390625,-0.96875 0,-0.351562 0.128906,-0.660156 0.390625,-0.921875 0.269531,-0.269531 0.597656,-0.40625 0.984375,-0.40625 0.394531,0 0.722656,0.132813 0.984375,0.390625 0.269531,0.25 0.40625,0.554688 0.40625,0.90625 0,0.398438 -0.136719,0.730469 -0.40625,1 -0.261719,0.261719 -0.589844,0.390625 -0.984375,0.390625 z m 0,0"
                     id="path76" />
                </g>
              </g>
            </g>
          </g>
        </g>
      </g>
      <g
         transform="translate(37,3)"
         id="g100">
        <g
           clip-path="url(#d412a7bc43)"
           id="g98">
          <g
             fill="#ffd400"
             fill-opacity="1"
             id="g96">
            <g
               transform="translate(0.717174,26.536597)"
               id="g94">
              <g
                 id="g92">
                <path
                   d="m 8.359375,0.140625 c -1.34375,0 -2.558594,-0.304687 -3.640625,-0.921875 C 3.632812,-1.394531 2.78125,-2.242188 2.15625,-3.328125 1.53125,-4.410156 1.21875,-5.632812 1.21875,-7 c 0,-1.375 0.3125,-2.601562 0.9375,-3.6875 0.625,-1.082031 1.476562,-1.925781 2.5625,-2.53125 1.082031,-0.601562 2.296875,-0.90625 3.640625,-0.90625 1.351563,0 2.570313,0.304688 3.65625,0.90625 1.082031,0.605469 1.929687,1.449219 2.546875,2.53125 0.613281,1.085938 0.921875,2.3125 0.921875,3.6875 0,1.367188 -0.308594,2.589844 -0.921875,3.671875 -0.617188,1.085937 -1.464844,1.933594 -2.546875,2.546875 -1.085937,0.617188 -2.304687,0.921875 -3.65625,0.921875 z m 0,-1.6875 c 1,0 1.894531,-0.222656 2.6875,-0.671875 0.789063,-0.457031 1.40625,-1.101562 1.84375,-1.9375 C 13.335938,-4.988281 13.5625,-5.9375 13.5625,-7 c 0,-1.070312 -0.226562,-2.023438 -0.671875,-2.859375 -0.4375,-0.832031 -1.054687,-1.472656 -1.84375,-1.921875 -0.792969,-0.457031 -1.6875,-0.6875 -2.6875,-0.6875 -0.992187,0 -1.882813,0.230469 -2.671875,0.6875 -0.792969,0.449219 -1.417969,1.089844 -1.875,1.921875 C 3.363281,-9.023438 3.140625,-8.070312 3.140625,-7 c 0,1.0625 0.222656,2.011719 0.671875,2.84375 0.457031,0.835938 1.082031,1.480469 1.875,1.9375 0.789062,0.449219 1.679688,0.671875 2.671875,0.671875 z m 0,0"
                   id="path90" />
              </g>
            </g>
          </g>
        </g>
      </g>
    </g>
  </g>
</svg>
